#!OML:ASF X:\für Bonn\!DataBase\2005_08_10_Bjorn_Final\c3d\bjorn.ASF
:FULLY-SPECIFIED
:DEGREES
127
root 3.67694 17.3788 1.21171 -219.728 -0.322869 182.003
lowerback 17.3702 7.92687 3.8154
upperback 19.28 5.70337 -5.05634
thorax 13.2344 1.42239 -8.72464
lowerneck 8.58445 1.13271 -2.27387
upperneck 8.5503 -1.21405 17.9793
head 1.13307 -1.25049 5.86821
rclavicle 4.6118e-014 9.54166e-014
rhumerus -42.6648 9.66747 -82.8524
rradius 47.7532
rwrist -9.33849
rhand -20.7502 23.92
rfingers 7.12502
rthumb 5.61555 -5.98562
lclavicle 4.6118e-014 9.54166e-014
lhumerus 24.8613 7.97322 30.5441
lradius 110.96
lwrist 8.71314
lhand -52.5018 -20.3805
lfingers 7.12502
lthumb -24.9884 8.00532
rfemur 27.4049 -7.00138 19.6652
rtibia 42.5993
rfoot -21.6078 24.5839
rtoes 1.28621
lfemur -75.9908 25.5564 -28.9807
ltibia 37.388
lfoot 10.2723 -3.32357
ltoes -21.2932
128
root 3.63694 17.3841 1.17561 -219.809 0.881798 181.535
lowerback 16.0628 0.726226 2.10547
upperback 17.5136 7.8414 -7.33989
thorax 12.1769 7.54205 -9.31251
lowerneck 10.7493 1.75174 -1.51715
upperneck 9.59125 -0.65519 17.5449
head 1.03458 -1.11647 5.6152
rclavicle 1.19271e-015 -1.33583e-013
rhumerus -42.793 10.3461 -83.0479
rradius 45.8694
rwrist -8.95789
rhand -20.6933 24.2823
rfingers 7.12502
rthumb 5.67047 -5.62182
lclavicle 1.19271e-015 -1.33583e-013
lhumerus 22.39 7.95844 30.2389
lradius 111.582
lwrist 8.05133
lhand -52.8738 -19.9032
lfingers 7.12502
lthumb -25.3449 8.43257
rfemur 27.6761 -6.35247 19.3655
rtibia 42.4205
rfoot -21.1252 25.4368
rtoes 2.33649
lfemur -70.3754 23.3619 -21.6729
ltibia 33.338
lfoot 7.74901 3.1867
ltoes -18.9095
129
root 3.6036 17.3973 1.14672 -219.856 2.00601 181.07
lowerback 14.8903 1.16 2.72653
upperback 16.8464 7.98539 -7.45384
thorax 12.1145 7.46705 -9.74297
lowerneck 12.8387 2.33156 -0.740626
upperneck 10.5365 -0.128365 17.103
head 0.944256 -1.00339 5.35213
rclavicle -9.93923e-015 -7.95139e-014
rhumerus -42.964 10.7995 -83.1687
rradius 44.0934
rwrist -8.35423
rhand -20.6486 24.5735
rfingers 7.12502
rthumb 5.71364 -5.32946
lclavicle -9.93923e-015 -7.95139e-014
lhumerus 19.9724 7.81088 30.0751
lradius 112.013
lwrist 7.18665
lhand -53.5847 -19.2299
lfingers 7.12502
lthumb -26.0257 9.00753
rfemur 27.8585 -5.5888 19.266
rtibia 42.2448
rfoot -20.6784 25.9935
rtoes 3.46987
lfemur -64.6989 19.5141 -13.5619
ltibia 30.3294
lfoot 4.50291 11.961
ltoes -12.6423
130
root 3.5723 17.4086 1.11696 -219.885 2.98499 180.604
lowerback 13.7161 1.56153 3.2852
upperback 16.244 8.14905 -7.57445
thorax 12.1578 7.42731 -10.1316
lowerneck 14.6017 2.83396 0.0209642
upperneck 11.4254 0.303745 16.7399
head 0.914353 -0.922779 5.11327
rclavicle -1.96797e-014 8.90555e-014
rhumerus -43.038 10.9876 -83.2269
rradius 42.4286
rwrist -7.61188
rhand -20.7041 24.7473
rfingers 7.12502
rthumb 5.66009 -5.15708
lclavicle -1.96797e-014 8.90555e-014
lhumerus 17.7413 7.55626 29.9387
lradius 112.153
lwrist 6.68613
lhand -54.5464 -19.4973
lfingers 7.12502
lthumb -26.9463 8.60141
rfemur 27.9987 -4.80985 19.2187
rtibia 42.0868
rfoot -20.3583 26.3382
rtoes 4.31428
lfemur -60.0373 15.045 -6.54496
ltibia 28.4532
lfoot 0.182904 21.2483
ltoes -5.65732
131
root 3.54509 17.4182 1.08608 -219.896 3.70628 180.098
lowerback 12.5718 1.90895 3.63295
upperback 15.6976 8.28537 -7.71773
thorax 12.2389 7.37751 -10.4169
lowerneck 16.0594 3.29896 0.696524
upperneck 12.2931 0.68226 16.4571
head 0.940862 -0.853957 4.91163
rclavicle 3.02153e-014 2.8625e-014
rhumerus -43.0871 10.9643 -83.2131
rradius 40.924
rwrist -6.67683
rhand -20.8722 24.8671
rfingers 7.12502
rthumb 5.49775 -5.04163
lclavicle 3.02153e-014 2.8625e-014
lhumerus 15.5727 7.2188 29.7381
lradius 111.963
lwrist 6.69804
lhand -55.5352 -21.0781
lfingers 7.12502
lthumb -27.8919 6.8708
rfemur 28.1099 -4.05102 19.1326
rtibia 41.945
rfoot -20.2049 26.4465
rtoes 4.95351
lfemur -56.7613 11.3665 -1.94258
ltibia 27.5512
lfoot -5.06615 27.9939
ltoes 3.0412
132
root 3.52249 17.4294 1.05605 -219.908 4.18137 179.57
lowerback 11.5 2.20997 3.7668
upperback 15.1853 8.39085 -7.8673
thorax 12.292 7.30507 -10.5868
lowerneck 17.3285 3.73693 1.2611
upperneck 13.1188 1.0148 16.2789
head 0.992984 -0.802672 4.76049
rclavicle -4.29375e-014 7.95139e-014
rhumerus -43.219 10.8367 -83.1795
rradius 39.6332
rwrist -5.8123
rhand -21.192 24.91
rfingers 7.12502
rthumb 5.18894 -5.00645
lclavicle -4.29375e-014 7.95139e-014
lhumerus 13.5377 6.83546 29.5259
lradius 111.483
lwrist 6.71033
lhand -56.4259 -22.5063
lfingers 7.12502
lthumb -28.7432 5.30137
rfemur 28.2176 -3.35521 18.9712
rtibia 41.8127
rfoot -20.0794 26.4451
rtoes 5.62409
lfemur -54.5656 9.43388 -0.0226477
ltibia 27.2684
lfoot -9.30021 31.6867
ltoes 10.3856
133
root 3.50231 17.4441 1.02839 -219.917 4.39942 179.018
lowerback 10.4839 2.45913 3.67616
upperback 14.7391 8.46691 -8.00041
thorax 12.355 7.21172 -10.6052
lowerneck 18.3692 4.10563 1.69717
upperneck 13.8558 1.27916 16.0931
head 1.06239 -0.768316 4.62832
rclavicle 3.62285e-014 -1.24042e-013
rhumerus -43.3458 10.6166 -83.0487
rradius 38.5058
rwrist -4.87109
rhand -21.6351 24.7351
rfingers 7.12502
rthumb 4.76108 -5.19144
lclavicle 3.62285e-014 -1.24042e-013
lhumerus 11.7497 6.45759 29.45
lradius 110.824
lwrist 6.64543
lhand -57.0771 -23.1677
lfingers 7.12502
lthumb -29.3651 4.53265
rfemur 28.3354 -2.75591 18.6954
rtibia 41.6623
rfoot -20.1045 26.3108
rtoes 5.98835
lfemur -53.2403 9.61324 -0.601739
ltibia 27.3464
lfoot -8.83442 32.3504
ltoes 10.7738
